# xmcd CD database file
#
# Track frame offsets:
#	150
#	31512
#	51230
#
# Disc length: 1058 seconds
#
# Revision: 1
# Processed by: cddbd v1.5.1PL0 Copyright (c) Steve Scherf et al.
# Submitted via: CDex 1.51
#
DISCID=19042003
DTITLE=HANADENSHA - Doobie Shining Love
DYEAR=1997
DGENRE=Psychedelic Rock
TTITLE0=Doobie Shining Love
TTITLE1=Star
TTITLE2=Seasky Rainbow
EXTD=YEAR: 1997
EXTT0=
EXTT1=
EXTT2=
PLAYORDER=
